<?xml version="1.0" encoding="UTF-8" standalone="no"?>
<!-- Created with Inkscape (http://www.inkscape.org/) -->

<svg
   width="210mm"
   height="297mm"
   viewBox="0 0 210 297"
   version="1.1"
   id="svg1"
   inkscape:version="1.4.2 (ebf0e94, 2025-05-08)"
   sodipodi:docname="izq.svg"
   xmlns:inkscape="http://www.inkscape.org/namespaces/inkscape"
   xmlns:sodipodi="http://sodipodi.sourceforge.net/DTD/sodipodi-0.dtd"
   xmlns="http://www.w3.org/2000/svg"
   xmlns:svg="http://www.w3.org/2000/svg">
  <sodipodi:namedview
     id="namedview1"
     pagecolor="#ffffff"
     bordercolor="#000000"
     borderopacity="0.25"
     inkscape:showpageshadow="2"
     inkscape:pageopacity="0.0"
     inkscape:pagecheckerboard="0"
     inkscape:deskcolor="#d1d1d1"
     inkscape:document-units="mm"
     inkscape:zoom="0.696647"
     inkscape:cx="353.12002"
     inkscape:cy="666.76523"
     inkscape:window-width="1920"
     inkscape:window-height="1009"
     inkscape:window-x="-8"
     inkscape:window-y="-8"
     inkscape:window-maximized="1"
     inkscape:current-layer="layer1"
     showgrid="false" />
  <defs
     id="defs1" />
  <g
     inkscape:label="Capa 1"
     inkscape:groupmode="layer"
     id="layer1"
     style="display:inline">
    <path
       id="circle2"
       style="opacity:0.94;fill:#ffffff;fill-opacity:1;fill-rule:evenodd;stroke:#000000;stroke-width:1;stroke-linecap:square;stroke-miterlimit:8.2;stroke-dasharray:none;stroke-opacity:1;paint-order:stroke fill markers;stop-color:#000000;stop-opacity:1"
       d="m 37.924022,142.26641 a 6.6104465,6.6104465 0 0 1 -6.61045,6.61044 6.6104465,6.6104465 0 0 1 -6.61045,-6.61044 6.6104465,6.6104465 0 0 1 6.61045,-6.61045 6.6104465,6.6104465 0 0 1 6.61045,6.61045 z" />
    <path
       id="circle3"
       style="opacity:0.94;fill:#ffffff;fill-opacity:1;fill-rule:evenodd;stroke:#000000;stroke-width:1;stroke-linecap:square;stroke-miterlimit:8.2;stroke-dasharray:none;stroke-opacity:1;paint-order:stroke fill markers"
       d="m 63.241602,138.48067 a 6.6104465,6.6104465 0 0 1 -6.61045,6.61045 6.6104465,6.6104465 0 0 1 -6.61045,-6.61045 6.6104465,6.6104465 0 0 1 6.61045,-6.61045 6.6104465,6.6104465 0 0 1 6.61045,6.61045 z" />
    <path
       id="circle4"
       style="opacity:0.94;fill:#ffffff;fill-opacity:1;fill-rule:evenodd;stroke:#000000;stroke-width:1;stroke-linecap:square;stroke-miterlimit:8.2;stroke-dasharray:none;stroke-opacity:1;paint-order:stroke fill markers"
       d="m 74.125712,127.12336 a 6.6104465,6.6104465 0 0 1 -6.61045,6.61045 6.6104465,6.6104465 0 0 1 -6.61045,-6.61045 6.6104465,6.6104465 0 0 1 6.61045,-6.61044 6.6104465,6.6104465 0 0 1 6.61045,6.61044 z" />
    <path
       id="circle5"
       style="opacity:0.94;fill:#ffffff;fill-opacity:1;fill-rule:evenodd;stroke:#000000;stroke-width:1;stroke-linecap:square;stroke-miterlimit:8.2;stroke-dasharray:none;stroke-opacity:1;paint-order:stroke fill markers"
       d="m 89.623662,133.51187 a 6.6104465,6.6104465 0 0 1 -6.61044,6.61044 6.6104465,6.6104465 0 0 1 -6.61045,-6.61044 6.6104465,6.6104465 0 0 1 6.61045,-6.61045 6.6104465,6.6104465 0 0 1 6.61044,6.61045 z" />
    <path
       id="circle6"
       style="opacity:0.94;fill:#ffffff;fill-opacity:1;fill-rule:evenodd;stroke:#000000;stroke-width:1;stroke-linecap:square;stroke-miterlimit:8.2;stroke-dasharray:none;stroke-opacity:1;paint-order:stroke fill markers"
       d="m 103.34702,123.69252 a 6.6104465,6.6104465 0 0 1 -6.610448,6.61044 6.6104465,6.6104465 0 0 1 -6.61044,-6.61044 6.6104465,6.6104465 0 0 1 6.61044,-6.61045 6.6104465,6.6104465 0 0 1 6.610448,6.61045 z" />
    <path
       id="circle7"
       style="opacity:0.94;fill:#ffffff;fill-opacity:1;fill-rule:evenodd;stroke:#000000;stroke-width:1;stroke-linecap:square;stroke-miterlimit:8.2;stroke-dasharray:none;stroke-opacity:1;paint-order:stroke fill markers"
       d="m 115.05921,133.98508 a 6.6104465,6.6104465 0 0 1 -6.61045,6.61045 6.6104465,6.6104465 0 0 1 -6.61044,-6.61045 6.6104465,6.6104465 0 0 1 6.61044,-6.61045 6.6104465,6.6104465 0 0 1 6.61045,6.61045 z" />
    <path
       id="circle8"
       style="opacity:0.94;fill:#ffffff;fill-opacity:1;fill-rule:evenodd;stroke:#000000;stroke-width:1;stroke-linecap:square;stroke-miterlimit:8.2;stroke-dasharray:none;stroke-opacity:1;paint-order:stroke fill markers"
       d="m 129.72909,124.99388 a 6.6104465,6.6104465 0 0 1 -6.61045,6.61044 6.6104465,6.6104465 0 0 1 -6.61045,-6.61044 6.6104465,6.6104465 0 0 1 6.61045,-6.61045 6.6104465,6.6104465 0 0 1 6.61045,6.61045 z" />
    <path
       id="circle9"
       style="opacity:0.94;fill:#ffffff;fill-opacity:1;fill-rule:evenodd;stroke:#000000;stroke-width:1;stroke-linecap:square;stroke-miterlimit:8.2;stroke-dasharray:none;stroke-opacity:1;paint-order:stroke fill markers"
       d="m 156.93928,129.60778 a 6.6104465,6.6104465 0 0 1 -6.61045,6.61044 6.6104465,6.6104465 0 0 1 -6.61045,-6.61044 6.6104465,6.6104465 0 0 1 6.61045,-6.61045 6.6104465,6.6104465 0 0 1 6.61045,6.61045 z" />
    <path
       id="circle10"
       style="opacity:0.94;fill:#ffffff;fill-opacity:1;fill-rule:evenodd;stroke:#000000;stroke-width:1;stroke-linecap:square;stroke-miterlimit:8.2;stroke-dasharray:none;stroke-opacity:1;paint-order:stroke fill markers"
       d="m 140.96805,137.06099 a 6.6104465,6.6104465 0 0 1 -6.61044,6.61045 6.6104465,6.6104465 0 0 1 -6.61045,-6.61045 6.6104465,6.6104465 0 0 1 6.61045,-6.61044 6.6104465,6.6104465 0 0 1 6.61044,6.61044 z" />
    <path
       id="circle11"
       style="opacity:0.94;fill:#ffffff;fill-opacity:1;fill-rule:evenodd;stroke:#000000;stroke-width:1;stroke-linecap:square;stroke-miterlimit:8.2;stroke-dasharray:none;stroke-opacity:1;paint-order:stroke fill markers"
       d="m 127.12633,145.22408 a 6.6104465,6.6104465 0 0 1 -6.61044,6.61045 6.6104465,6.6104465 0 0 1 -6.61045,-6.61045 6.6104465,6.6104465 0 0 1 6.61045,-6.61045 6.6104465,6.6104465 0 0 1 6.61044,6.61045 z" />
    <path
       id="circle12"
       style="opacity:0.94;fill:#ffffff;fill-opacity:1;fill-rule:evenodd;stroke:#000000;stroke-width:1;stroke-linecap:square;stroke-miterlimit:8.2;stroke-dasharray:none;stroke-opacity:1;paint-order:stroke fill markers"
       d="m 102.51888,143.92269 a 6.6104465,6.6104465 0 0 1 -6.610448,6.61044 6.6104465,6.6104465 0 0 1 -6.61044,-6.61044 6.6104465,6.6104465 0 0 1 6.61044,-6.61045 6.6104465,6.6104465 0 0 1 6.610448,6.61045 z" />
    <path
       id="circle13"
       style="opacity:0.94;fill:#ffffff;fill-opacity:1;fill-rule:evenodd;stroke:#000000;stroke-width:1;stroke-linecap:square;stroke-miterlimit:8.2;stroke-dasharray:none;stroke-opacity:1;paint-order:stroke fill markers"
       d="m 78.029732,145.34237 a 6.6104465,6.6104465 0 0 1 -6.61045,6.61045 6.6104465,6.6104465 0 0 1 -6.61044,-6.61045 6.6104465,6.6104465 0 0 1 6.61044,-6.61044 6.6104465,6.6104465 0 0 1 6.61045,6.61044 z" />
    <path
       id="circle14"
       style="opacity:0.94;fill:#ffffff;fill-opacity:1;fill-rule:evenodd;stroke:#000000;stroke-width:1;stroke-linecap:square;stroke-miterlimit:8.2;stroke-dasharray:none;stroke-opacity:1;paint-order:stroke fill markers;stop-color:#000000;stop-opacity:1"
       d="m 52.357532,150.5478 a 6.6104465,6.6104465 0 0 1 -6.61044,6.61045 6.6104465,6.6104465 0 0 1 -6.61045,-6.61045 6.6104465,6.6104465 0 0 1 6.61045,-6.61044 6.6104465,6.6104465 0 0 1 6.61044,6.61044 z" />
    <path
       id="circle15"
       style="opacity:0.94;fill:#ffffff;fill-opacity:1;fill-rule:evenodd;stroke:#000000;stroke-width:1;stroke-linecap:square;stroke-miterlimit:8.2;stroke-dasharray:none;stroke-opacity:1;paint-order:stroke fill markers;stop-color:#000000;stop-opacity:1"
       d="m 36.386022,171.84272 a 6.6104465,6.6104465 0 0 1 -6.61044,6.61045 6.6104465,6.6104465 0 0 1 -6.61045,-6.61045 6.6104465,6.6104465 0 0 1 6.61045,-6.61044 6.6104465,6.6104465 0 0 1 6.61044,6.61044 z" />
    <path
       id="circle16"
       style="opacity:0.94;fill:#ffffff;fill-opacity:1;fill-rule:evenodd;stroke:#000000;stroke-width:1;stroke-linecap:square;stroke-miterlimit:8.2;stroke-dasharray:none;stroke-opacity:1;paint-order:stroke fill markers"
       d="m 60.993812,164.15286 a 6.6104465,6.6104465 0 0 1 -6.61045,6.61045 6.6104465,6.6104465 0 0 1 -6.61044,-6.61045 6.6104465,6.6104465 0 0 1 6.61044,-6.61045 6.6104465,6.6104465 0 0 1 6.61045,6.61045 z" />
    <path
       id="circle17"
       style="opacity:0.94;fill:#ffffff;fill-opacity:1;fill-rule:evenodd;stroke:#000000;stroke-width:1;stroke-linecap:square;stroke-miterlimit:8.2;stroke-dasharray:none;stroke-opacity:1;paint-order:stroke fill markers"
       d="m 84.536472,162.14172 a 6.6104465,6.6104465 0 0 1 -6.61044,6.61045 6.6104465,6.6104465 0 0 1 -6.61045,-6.61045 6.6104465,6.6104465 0 0 1 6.61045,-6.61045 6.6104465,6.6104465 0 0 1 6.61044,6.61045 z" />
    <path
       id="circle18"
       style="opacity:0.94;fill:#ffffff;fill-opacity:1;fill-rule:evenodd;stroke:#000000;stroke-width:1;stroke-linecap:square;stroke-miterlimit:8.2;stroke-dasharray:none;stroke-opacity:1;paint-order:stroke fill markers"
       d="m 110.32702,159.30239 a 6.6104465,6.6104465 0 0 1 -6.61045,6.61045 6.6104465,6.6104465 0 0 1 -6.610448,-6.61045 6.6104465,6.6104465 0 0 1 6.610448,-6.61044 6.6104465,6.6104465 0 0 1 6.61045,6.61044 z" />
    <path
       id="circle19"
       style="opacity:0.94;fill:#ffffff;fill-opacity:1;fill-rule:evenodd;stroke:#000000;stroke-width:1;stroke-linecap:square;stroke-miterlimit:8.2;stroke-dasharray:none;stroke-opacity:1;paint-order:stroke fill markers"
       d="m 134.46126,160.84036 a 6.6104465,6.6104465 0 0 1 -6.61044,6.61045 6.6104465,6.6104465 0 0 1 -6.61045,-6.61045 6.6104465,6.6104465 0 0 1 6.61045,-6.61045 6.6104465,6.6104465 0 0 1 6.61044,6.61045 z" />
    <path
       id="circle20"
       style="opacity:0.94;fill:#ffffff;fill-opacity:1;fill-rule:evenodd;stroke:#000000;stroke-width:1;stroke-linecap:square;stroke-miterlimit:8.2;stroke-dasharray:none;stroke-opacity:1;paint-order:stroke fill markers"
       d="m 159.06873,165.45427 a 6.6104465,6.6104465 0 0 1 -6.61045,6.61044 6.6104465,6.6104465 0 0 1 -6.61044,-6.61044 6.6104465,6.6104465 0 0 1 6.61044,-6.61045 6.6104465,6.6104465 0 0 1 6.61045,6.61045 z" />
    <path
       id="circle21"
       style="opacity:0.94;fill:#ffffff;fill-opacity:1;fill-rule:evenodd;stroke:#000000;stroke-width:1;stroke-linecap:square;stroke-miterlimit:8.2;stroke-dasharray:none;stroke-opacity:1;paint-order:stroke fill markers"
       d="m 150.07752,148.89154 a 6.6104465,6.6104465 0 0 1 -6.61045,6.61044 6.6104465,6.6104465 0 0 1 -6.61044,-6.61044 6.6104465,6.6104465 0 0 1 6.61044,-6.61045 6.6104465,6.6104465 0 0 1 6.61045,6.61045 z" />
    <path
       id="circle22"
       style="opacity:0.94;fill:#ffffff;fill-opacity:1;fill-rule:evenodd;stroke:#000000;stroke-width:1;stroke-linecap:square;stroke-miterlimit:8.2;stroke-dasharray:none;stroke-opacity:1;paint-order:stroke fill markers;stop-color:#000000;stop-opacity:1"
       d="m 166.9951,142.3847 a 6.6104465,6.6104465 0 0 1 -6.61045,6.61045 6.6104465,6.6104465 0 0 1 -6.61044,-6.61045 6.6104465,6.6104465 0 0 1 6.61044,-6.61045 6.6104465,6.6104465 0 0 1 6.61045,6.61045 z" />
    <path
       id="circle56"
       style="opacity:0.94;fill:#ffffff;fill-opacity:1;fill-rule:evenodd;stroke:#000000;stroke-width:1;stroke-linecap:square;stroke-miterlimit:8.2;stroke-dasharray:none;stroke-opacity:1;paint-order:stroke fill markers"
       d="m 182.13801,138.24404 a 6.6104465,6.6104465 0 0 1 -6.61044,6.61044 6.6104465,6.6104465 0 0 1 -6.61045,-6.61044 6.6104465,6.6104465 0 0 1 6.61045,-6.61045 6.6104465,6.6104465 0 0 1 6.61044,6.61045 z" />
    <path
       id="circle57"
       style="opacity:0.94;fill:#ffffff;fill-opacity:1;fill-rule:evenodd;stroke:#000000;stroke-width:1;stroke-linecap:square;stroke-miterlimit:8.2;stroke-dasharray:none;stroke-opacity:1;paint-order:stroke fill markers"
       d="m 191.83901,151.37593 a 6.6104465,6.6104465 0 0 1 -6.61045,6.61044 6.6104465,6.6104465 0 0 1 -6.61044,-6.61044 6.6104465,6.6104465 0 0 1 6.61044,-6.61045 6.6104465,6.6104465 0 0 1 6.61045,6.61045 z" />
    <path
       id="circle58"
       style="opacity:0.94;fill:#ffffff;fill-opacity:1;fill-rule:evenodd;stroke:#000000;stroke-width:1;stroke-linecap:square;stroke-miterlimit:8.2;stroke-dasharray:none;stroke-opacity:1;paint-order:stroke fill markers"
       d="m 174.44819,156.58139 a 6.6104465,6.6104465 0 0 1 -6.61045,6.61044 6.6104465,6.6104465 0 0 1 -6.61045,-6.61044 6.6104465,6.6104465 0 0 1 6.61045,-6.61045 6.6104465,6.6104465 0 0 1 6.61045,6.61045 z" />
    <path
       id="circle59"
       style="opacity:0.94;fill:#ffffff;fill-opacity:1;fill-rule:evenodd;stroke:#000000;stroke-width:1;stroke-linecap:square;stroke-miterlimit:8.2;stroke-dasharray:none;stroke-opacity:1;paint-order:stroke fill markers;stop-color:#000000;stop-opacity:1"
       d="m 183.20278,173.85394 a 6.6104465,6.6104465 0 0 1 -6.61045,6.61045 6.6104465,6.6104465 0 0 1 -6.61044,-6.61045 6.6104465,6.6104465 0 0 1 6.61044,-6.61045 6.6104465,6.6104465 0 0 1 6.61045,6.61045 z" />
    <path
       id="circle60"
       style="opacity:0.94;fill:#ffffff;fill-opacity:1;fill-rule:evenodd;stroke:#000000;stroke-width:1;stroke-linecap:square;stroke-miterlimit:8.2;stroke-dasharray:none;stroke-opacity:1;paint-order:stroke fill markers;stop-color:#000000;stop-opacity:1"
       d="m 191.60238,190.29834 a 6.6104465,6.6104465 0 0 1 -6.61045,6.61044 6.6104465,6.6104465 0 0 1 -6.61045,-6.61044 6.6104465,6.6104465 0 0 1 6.61045,-6.61045 6.6104465,6.6104465 0 0 1 6.61045,6.61045 z" />
    <path
       id="circle61"
       style="opacity:0.94;fill:#ffffff;fill-opacity:1;fill-rule:evenodd;stroke:#000000;stroke-width:1;stroke-linecap:square;stroke-miterlimit:8.2;stroke-dasharray:none;stroke-opacity:1;paint-order:stroke fill markers"
       d="m 166.40357,182.72682 a 6.6104465,6.6104465 0 0 1 -6.61045,6.61044 6.6104465,6.6104465 0 0 1 -6.61044,-6.61044 6.6104465,6.6104465 0 0 1 6.61044,-6.61045 6.6104465,6.6104465 0 0 1 6.61045,6.61045 z" />
    <path
       id="circle62"
       style="opacity:0.94;fill:#ffffff;fill-opacity:1;fill-rule:evenodd;stroke:#000000;stroke-width:1;stroke-linecap:square;stroke-miterlimit:8.2;stroke-dasharray:none;stroke-opacity:1;paint-order:stroke fill markers"
       d="m 142.38765,178.11293 a 6.6104465,6.6104465 0 0 1 -6.61044,6.61044 6.6104465,6.6104465 0 0 1 -6.61045,-6.61044 6.6104465,6.6104465 0 0 1 6.61045,-6.61045 6.6104465,6.6104465 0 0 1 6.61044,6.61045 z" />
    <path
       id="circle63"
       style="opacity:0.94;fill:#ffffff;fill-opacity:1;fill-rule:evenodd;stroke:#000000;stroke-width:1;stroke-linecap:square;stroke-miterlimit:8.2;stroke-dasharray:none;stroke-opacity:1;paint-order:stroke fill markers"
       d="m 118.25339,176.57492 a 6.6104465,6.6104465 0 0 1 -6.61044,6.61044 6.6104465,6.6104465 0 0 1 -6.61045,-6.61044 6.6104465,6.6104465 0 0 1 6.61045,-6.61045 6.6104465,6.6104465 0 0 1 6.61044,6.61045 z" />
    <path
       id="circle64"
       style="opacity:0.94;fill:#ffffff;fill-opacity:1;fill-rule:evenodd;stroke:#000000;stroke-width:1;stroke-linecap:square;stroke-miterlimit:8.2;stroke-dasharray:none;stroke-opacity:1;paint-order:stroke fill markers"
       d="m 93.764242,175.86512 a 6.6104465,6.6104465 0 0 1 -6.61044,6.61045 6.6104465,6.6104465 0 0 1 -6.61045,-6.61045 6.6104465,6.6104465 0 0 1 6.61045,-6.61044 6.6104465,6.6104465 0 0 1 6.61044,6.61044 z" />
    <path
       id="circle65"
       style="opacity:0.94;fill:#ffffff;fill-opacity:1;fill-rule:evenodd;stroke:#000000;stroke-width:1;stroke-linecap:square;stroke-miterlimit:8.2;stroke-dasharray:none;stroke-opacity:1;paint-order:stroke fill markers"
       d="m 68.683602,180.36073 a 6.6104465,6.6104465 0 0 1 -6.61045,6.61045 6.6104465,6.6104465 0 0 1 -6.61044,-6.61045 6.6104465,6.6104465 0 0 1 6.61044,-6.61045 6.6104465,6.6104465 0 0 1 6.61045,6.61045 z" />
    <path
       id="circle66"
       style="opacity:0.94;fill:#ffffff;fill-opacity:1;fill-rule:evenodd;stroke:#000000;stroke-width:1;stroke-linecap:square;stroke-miterlimit:8.2;stroke-dasharray:none;stroke-opacity:1;paint-order:stroke fill markers"
       d="m 45.377422,186.39425 a 6.6104465,6.6104465 0 0 1 -6.61045,6.61045 6.6104465,6.6104465 0 0 1 -6.61045,-6.61045 6.6104465,6.6104465 0 0 1 6.61045,-6.61044 6.6104465,6.6104465 0 0 1 6.61045,6.61044 z" />
    <path
       id="circle67"
       style="opacity:0.94;fill:#ffffff;fill-opacity:1;fill-rule:evenodd;stroke:#000000;stroke-width:1;stroke-linecap:square;stroke-miterlimit:8.2;stroke-dasharray:none;stroke-opacity:1;paint-order:stroke fill markers;stop-color:#000000;stop-opacity:1"
       d="m 26.093182,192.19123 a 6.6104465,6.6104465 0 0 1 -6.61045,6.61045 6.6104465,6.6104465 0 0 1 -6.61045,-6.61045 6.6104465,6.6104465 0 0 1 6.61045,-6.61044 6.6104465,6.6104465 0 0 1 6.61045,6.61044 z" />
  </g>
</svg>
