<svg xmlns="http://www.w3.org/2000/svg" viewBox="0 0 618 618" fill="none">
	<rect width="618" height="618" rx="96" fill="#111" />
	<g transform="translate(541 22) rotate(90) scale(0.82)">
		<g transform="translate(29 29)">
			<g fill="#fff" stroke="#fff" stroke-width="8.5">
				<circle cx="199.78" cy="14.98" r="24.5" />
				<circle cx="294.68" cy="0.23" r="24.5" />
				<circle cx="385.28" cy="2.45" r="24.5" />
				<circle cx="480.17" cy="22.35" r="24.5" />
				<circle cx="162.44" cy="65.85" r="24.5" />
				<circle cx="253.66" cy="50.37" r="24.5" />
				<circle cx="338.14" cy="49.63" r="24.5" />
				<circle cx="428.75" cy="61.43" r="24.5" />
				<circle cx="515.07" cy="82.07" r="24.5" />
				<circle cx="124.48" cy="123.36" r="24.5" />
				<circle cx="207.74" cy="104.19" r="24.5" />
				<circle cx="294.06" cy="99.03" r="24.5" />
				<circle cx="377.94" cy="100.5" r="24.5" />
				<circle cx="461.81" cy="115.99" r="24.5" />
				<circle cx="545.68" cy="141.05" r="24.5" />
				<circle cx="93.26" cy="180.13" r="24.5" />
				<circle cx="174.07" cy="163.17" r="24.5" />
				<circle cx="251.21" cy="149.9" r="24.5" />
				<circle cx="332.63" cy="150.64" r="24.5" />
				<circle cx="413.44" cy="158.75" r="24.5" />
				<circle cx="493.03" cy="178.65" r="24.5" />
				<circle cx="573.23" cy="202.25" r="24.5" />
				<circle cx="40" cy="276.71" r="24.5" />
				<circle cx="123.26" cy="249.43" r="24.5" />
				<circle cx="201.01" cy="232.47" r="24.5" />
				<circle cx="283.04" cy="224.36" r="24.5" />
				<circle cx="363.86" cy="218.47" r="24.5" />
				<circle cx="443.44" cy="228.05" r="24.5" />
				<circle cx="522.42" cy="248.69" r="24.5" />
				<circle cx="602.61" cy="281.13" r="24.5" />
				<circle cx="67.55" cy="346.75" r="24.5" />
				<circle cx="147.14" cy="318.74" r="24.5" />
				<circle cx="232.23" cy="302.52" r="24.5" />
				<circle cx="311.82" cy="295.14" r="24.5" />
				<circle cx="393.85" cy="295.14" r="24.5" />
				<circle cx="467.93" cy="304.73" r="24.5" />
				<circle cx="547.52" cy="320.21" r="24.5" />
				<circle cx="632" cy="350.44" r="24.5" />
			</g>
			<g fill="#111">
				<circle cx="294.68" cy="0.23" r="6.3" />
				<circle cx="428.75" cy="61.43" r="6.3" />
				<circle cx="207.74" cy="104.19" r="6.3" />
				<circle cx="413.44" cy="158.75" r="6.3" />
				<circle cx="123.26" cy="249.43" r="6.3" />
				<circle cx="443.44" cy="228.05" r="6.3" />
				<circle cx="232.23" cy="302.52" r="6.3" />
				<circle cx="547.52" cy="320.21" r="6.3" />
			</g>
		</g>
	</g>
</svg>